ffmpeg started on 2025-05-29 at 16:24:46
Report written to "D:\Convert\FFMetrics\reports\ssim_report-6.txt"
Log level: 32
Command line:
ffmpeg -hide_banner -nostdin -i "G:\\\xc0\xed\xe8\xec\xe5\\\xce\xed\xe3\xee\xe8\xed\xe3\xe8\\!_36_\xce\xf1\xe5\xed\xfc_2024\\JamClub\\\xd2\xfb - \xe3\xee\xf0\xed\xe8\xf7\xed\xe0\xff\\JamClub_Kimi_wa_Meido_sama_05_1080p_HEVC.mkv" -i "G:\\\xc0\xed\xe8\xec\xe5\\\xce\xed\xe3\xee\xe8\xed\xe3\xe8\\!_36_\xce\xf1\xe5\xed\xfc_2024\\JamClub\\\xd2\xfb - \xe3\xee\xf0\xed\xe8\xf7\xed\xe0\xff\\JamClub_Kimi_wa_Meido_sama_05_1080p.mp4" -lavfi "[0:v]settb=AVTB,setpts=PTS-STARTPTS,format=pix_fmts=yuv420p10,fps=24000/1001,scale=1920:1080:flags=bicubic[main];[1:v]settb=AVTB,setpts=PTS-STARTPTS,format=pix_fmts=yuv420p,fps=24000/1001,scale=1920:1080:flags=bicubic[ref];[main][ref]ssim=eof_action=endall:stats_file='D\\:/Convert/FFMetrics/logs/ssim_logfile-6.txt'" -f null -
Input #0, matroska,webm, from 'G:\Аниме\Онгоинги\!_36_Осень_2024\JamClub\Ты - горничная\JamClub_Kimi_wa_Meido_sama_05_1080p_HEVC.mkv':
  Metadata:
    COMPATIBLE_BRANDS: isomiso2avc1mp41
    MAJOR_BRAND     : isom
    MINOR_VERSION   : 512
    ENCODER         : Lavf61.7.100
  Duration: 00:23:22.31, start: -0.001000, bitrate: 1758 kb/s
  Stream #0:0: Video: hevc (Main 10), yuv420p10le(tv, bt709, progressive), 1920x1080 [SAR 1:1 DAR 16:9], 23.98 fps, 23.98 tbr, 1k tbn (default)
      Metadata:
        HANDLER_NAME    : VideoHandler
        VENDOR_ID       : [0][0][0][0]
        ENCODER         : Lavc61.19.100 libx265
        BPS             : 1560973
        DURATION        : 00:23:22.233708333
        NUMBER_OF_FRAMES: 33620
        NUMBER_OF_BYTES : 273606009
        _STATISTICS_WRITING_APP: mkvpropedit v66.0.0 ('Josie') 64-bit
        _STATISTICS_WRITING_DATE_UTC: 2025-05-29 10:12:34
        _STATISTICS_TAGS: BPS DURATION NUMBER_OF_FRAMES NUMBER_OF_BYTES
  Stream #0:1(eng): Audio: aac (LC), 48000 Hz, stereo, fltp (default)
      Metadata:
        HANDLER_NAME    : SoundHandler
        VENDOR_ID       : [0][0][0][0]
        ENCODER         : Lavc61.19.100 aac
        BPS             : 193710
        DURATION        : 00:23:22.264000000
        NUMBER_OF_FRAMES: 65732
        NUMBER_OF_BYTES : 33954098
        _STATISTICS_WRITING_APP: mkvpropedit v66.0.0 ('Josie') 64-bit
        _STATISTICS_WRITING_DATE_UTC: 2025-05-29 10:12:34
        _STATISTICS_TAGS: BPS DURATION NUMBER_OF_FRAMES NUMBER_OF_BYTES
Input #1, mov,mp4,m4a,3gp,3g2,mj2, from 'G:\Аниме\Онгоинги\!_36_Осень_2024\JamClub\Ты - горничная\JamClub_Kimi_wa_Meido_sama_05_1080p.mp4':
  Metadata:
    major_brand     : isom
    minor_version   : 512
    compatible_brands: isomiso2avc1mp41
    encoder         : Lavf60.16.100
  Duration: 00:23:22.28, start: 0.000000, bitrate: 3734 kb/s
  Stream #1:0[0x1](und): Video: h264 (High) (avc1 / 0x31637661), yuv420p(progressive), 1920x1080 [SAR 1:1 DAR 16:9], 3536 kb/s, 23.98 fps, 23.98 tbr, 90k tbn (default)
      Metadata:
        handler_name    : VideoHandler
        vendor_id       : [0][0][0][0]
  Stream #1:1[0x2](eng): Audio: aac (LC) (mp4a / 0x6134706D), 48000 Hz, stereo, fltp, 191 kb/s (default)
      Metadata:
        handler_name    : SoundHandler
        vendor_id       : [0][0][0][0]
Stream mapping:
  Stream #0:0 (hevc) -> settb:default
  Stream #1:0 (h264) -> settb:default
  ssim:default -> Stream #0:0 (wrapped_avframe)
  Stream #0:1 -> #0:1 (aac (native) -> pcm_s16le (native))
Output #0, null, to 'pipe:':
  Metadata:
    COMPATIBLE_BRANDS: isomiso2avc1mp41
    MAJOR_BRAND     : isom
    MINOR_VERSION   : 512
    encoder         : Lavf61.7.100
  Stream #0:0: Video: wrapped_avframe, yuv420p10le(tv, bt709, progressive), 1920x1080 [SAR 1:1 DAR 16:9], q=2-31, 200 kb/s, 23.98 fps, 23.98 tbn
      Metadata:
        encoder         : Lavc61.19.100 wrapped_avframe
  Stream #0:1(eng): Audio: pcm_s16le, 48000 Hz, stereo, s16, 1536 kb/s (default)
      Metadata:
        HANDLER_NAME    : SoundHandler
        VENDOR_ID       : [0][0][0][0]
        _STATISTICS_TAGS: BPS DURATION NUMBER_OF_FRAMES NUMBER_OF_BYTES
        BPS             : 193710
        DURATION        : 00:23:22.264000000
        NUMBER_OF_FRAMES: 65732
        NUMBER_OF_BYTES : 33954098
        _STATISTICS_WRITING_APP: mkvpropedit v66.0.0 ('Josie') 64-bit
        _STATISTICS_WRITING_DATE_UTC: 2025-05-29 10:12:34
        encoder         : Lavc61.19.100 pcm_s16le
frame=  112 fps=0.0 q=-0.0 size=N/A time=00:00:04.67 bitrate=N/A speed=8.95x    frame=  269 fps=260 q=-0.0 size=N/A time=00:00:11.21 bitrate=N/A speed=10.9x    frame=  450 fps=292 q=-0.0 size=N/A time=00:00:18.76 bitrate=N/A speed=12.2x    frame=  687 fps=334 q=-0.0 size=N/A time=00:00:28.65 bitrate=N/A speed=13.9x    frame=  888 fps=344 q=-0.0 size=N/A time=00:00:37.03 bitrate=N/A speed=14.4x    frame= 1155 fps=373 q=-0.0 size=N/A time=00:00:48.17 bitrate=N/A speed=15.6x    frame= 1364 fps=378 q=-0.0 size=N/A time=00:00:56.89 bitrate=N/A speed=15.8x    frame= 1547 fps=375 q=-0.0 size=N/A time=00:01:04.52 bitrate=N/A speed=15.6x    frame= 1758 fps=379 q=-0.0 size=N/A time=00:01:13.32 bitrate=N/A speed=15.8x    frame= 2003 fps=389 q=-0.0 size=N/A time=00:01:23.54 bitrate=N/A speed=16.2x    frame= 2209 fps=390 q=-0.0 size=N/A time=00:01:32.13 bitrate=N/A speed=16.3x    frame= 2414 fps=390 q=-0.0 size=N/A time=00:01:40.68 bitrate=N/A speed=16.3x    frame= 2598 fps=388 q=-0.0 size=N/A time=00:01:48.35 bitrate=N/A speed=16.2x    frame= 2741 fps=380 q=-0.0 size=N/A time=00:01:54.32 bitrate=N/A speed=15.8x    frame= 2840 fps=367 q=-0.0 size=N/A time=00:01:58.45 bitrate=N/A speed=15.3x    frame= 2971 fps=360 q=-0.0 size=N/A time=00:02:03.91 bitrate=N/A speed=  15x    frame= 3094 fps=353 q=-0.0 size=N/A time=00:02:09.04 bitrate=N/A speed=14.7x    frame= 3209 fps=346 q=-0.0 size=N/A time=00:02:13.84 bitrate=N/A speed=14.4x    frame= 3404 fps=348 q=-0.0 size=N/A time=00:02:21.97 bitrate=N/A speed=14.5x    frame= 3550 fps=344 q=-0.0 size=N/A time=00:02:28.06 bitrate=N/A speed=14.4x    frame= 3782 fps=349 q=-0.0 size=N/A time=00:02:37.74 bitrate=N/A speed=14.6x    frame= 3951 fps=348 q=-0.0 size=N/A time=00:02:44.78 bitrate=N/A speed=14.5x    frame= 4188 fps=353 q=-0.0 size=N/A time=00:02:54.67 bitrate=N/A speed=14.7x    frame= 4459 fps=360 q=-0.0 size=N/A time=00:03:05.97 bitrate=N/A speed=  15x    frame= 4727 fps=367 q=-0.0 size=N/A time=00:03:17.15 bitrate=N/A speed=15.3x    frame= 5007 fps=373 q=-0.0 size=N/A time=00:03:28.83 bitrate=N/A speed=15.6x    frame= 5270 fps=379 q=-0.0 size=N/A time=00:03:39.80 bitrate=N/A speed=15.8x    frame= 5540 fps=384 q=-0.0 size=N/A time=00:03:51.06 bitrate=N/A speed=  16x    frame= 5784 fps=387 q=-0.0 size=N/A time=00:04:01.24 bitrate=N/A speed=16.1x    frame= 6045 fps=391 q=-0.0 size=N/A time=00:04:12.12 bitrate=N/A speed=16.3x    frame= 6315 fps=395 q=-0.0 size=N/A time=00:04:23.38 bitrate=N/A speed=16.5x    frame= 6597 fps=400 q=-0.0 size=N/A time=00:04:35.14 bitrate=N/A speed=16.7x    frame= 6874 fps=404 q=-0.0 size=N/A time=00:04:46.70 bitrate=N/A speed=16.8x    frame= 7138 fps=407 q=-0.0 size=N/A time=00:04:57.71 bitrate=N/A speed=  17x    frame= 7405 fps=410 q=-0.0 size=N/A time=00:05:08.85 bitrate=N/A speed=17.1x    frame= 7682 fps=414 q=-0.0 size=N/A time=00:05:20.40 bitrate=N/A speed=17.3x    frame= 7937 fps=416 q=-0.0 size=N/A time=00:05:31.03 bitrate=N/A speed=17.4x    frame= 8220 fps=420 q=-0.0 size=N/A time=00:05:42.84 bitrate=N/A speed=17.5x    frame= 8487 fps=422 q=-0.0 size=N/A time=00:05:53.97 bitrate=N/A speed=17.6x    frame= 8745 fps=424 q=-0.0 size=N/A time=00:06:04.73 bitrate=N/A speed=17.7x    frame= 9008 fps=426 q=-0.0 size=N/A time=00:06:15.70 bitrate=N/A speed=17.8x    frame= 9229 fps=426 q=-0.0 size=N/A time=00:06:24.92 bitrate=N/A speed=17.8x    frame= 9368 fps=423 q=-0.0 size=N/A time=00:06:30.72 bitrate=N/A speed=17.6x    frame= 9638 fps=425 q=-0.0 size=N/A time=00:06:41.98 bitrate=N/A speed=17.7x    frame= 9915 fps=427 q=-0.0 size=N/A time=00:06:53.53 bitrate=N/A speed=17.8x    frame=10193 fps=430 q=-0.0 size=N/A time=00:07:05.13 bitrate=N/A speed=17.9x    frame=10460 fps=432 q=-0.0 size=N/A time=00:07:16.26 bitrate=N/A speed=  18x    frame=10728 fps=434 q=-0.0 size=N/A time=00:07:27.44 bitrate=N/A speed=18.1x    frame=11021 fps=436 q=-0.0 size=N/A time=00:07:39.66 bitrate=N/A speed=18.2x    frame=11266 fps=437 q=-0.0 size=N/A time=00:07:49.88 bitrate=N/A speed=18.2x    frame=11510 fps=438 q=-0.0 size=N/A time=00:08:00.06 bitrate=N/A speed=18.3x    frame=11765 fps=439 q=-0.0 size=N/A time=00:08:10.69 bitrate=N/A speed=18.3x    frame=12028 fps=440 q=-0.0 size=N/A time=00:08:21.66 bitrate=N/A speed=18.4x    frame=12258 fps=440 q=-0.0 size=N/A time=00:08:31.26 bitrate=N/A speed=18.4x    frame=12524 fps=442 q=-0.0 size=N/A time=00:08:42.35 bitrate=N/A speed=18.4x    frame=12782 fps=443 q=-0.0 size=N/A time=00:08:53.11 bitrate=N/A speed=18.5x    frame=13055 fps=444 q=-0.0 size=N/A time=00:09:04.50 bitrate=N/A speed=18.5x    frame=13324 fps=445 q=-0.0 size=N/A time=00:09:15.72 bitrate=N/A speed=18.6x    frame=13601 fps=447 q=-0.0 size=N/A time=00:09:27.27 bitrate=N/A speed=18.6x    frame=13850 fps=447 q=-0.0 size=N/A time=00:09:37.66 bitrate=N/A speed=18.7x    frame=14132 fps=449 q=-0.0 size=N/A time=00:09:49.42 bitrate=N/A speed=18.7x    frame=14404 fps=450 q=-0.0 size=N/A time=00:10:00.76 bitrate=N/A speed=18.8x    frame=14672 fps=451 q=-0.0 size=N/A time=00:10:11.94 bitrate=N/A speed=18.8x    frame=14954 fps=452 q=-0.0 size=N/A time=00:10:23.70 bitrate=N/A speed=18.9x    frame=15227 fps=454 q=-0.0 size=N/A time=00:10:35.09 bitrate=N/A speed=18.9x    frame=15519 fps=455 q=-0.0 size=N/A time=00:10:47.27 bitrate=N/A speed=  19x    frame=15740 fps=455 q=-0.0 size=N/A time=00:10:56.48 bitrate=N/A speed=  19x    frame=15972 fps=455 q=-0.0 size=N/A time=00:11:06.16 bitrate=N/A speed=  19x    frame=16217 fps=455 q=-0.0 size=N/A time=00:11:16.38 bitrate=N/A speed=  19x    frame=16462 fps=455 q=-0.0 size=N/A time=00:11:26.60 bitrate=N/A speed=  19x    frame=16656 fps=454 q=-0.0 size=N/A time=00:11:34.69 bitrate=N/A speed=18.9x    frame=16833 fps=453 q=-0.0 size=N/A time=00:11:42.07 bitrate=N/A speed=18.9x    frame=17074 fps=453 q=-0.0 size=N/A time=00:11:52.12 bitrate=N/A speed=18.9x    frame=17339 fps=454 q=-0.0 size=N/A time=00:12:03.18 bitrate=N/A speed=18.9x    frame=17603 fps=454 q=-0.0 size=N/A time=00:12:14.19 bitrate=N/A speed=  19x    frame=17872 fps=455 q=-0.0 size=N/A time=00:12:25.41 bitrate=N/A speed=  19x    frame=18130 fps=456 q=-0.0 size=N/A time=00:12:36.17 bitrate=N/A speed=  19x    frame=18373 fps=456 q=-0.0 size=N/A time=00:12:46.30 bitrate=N/A speed=  19x    frame=18639 fps=457 q=-0.0 size=N/A time=00:12:57.40 bitrate=N/A speed=19.1x    frame=18875 fps=457 q=-0.0 size=N/A time=00:13:07.24 bitrate=N/A speed=19.1x    frame=19132 fps=457 q=-0.0 size=N/A time=00:13:17.96 bitrate=N/A speed=19.1x    frame=19381 fps=458 q=-0.0 size=N/A time=00:13:28.34 bitrate=N/A speed=19.1x    frame=19616 fps=458 q=-0.0 size=N/A time=00:13:38.15 bitrate=N/A speed=19.1x    frame=19810 fps=457 q=-0.0 size=N/A time=00:13:46.24 bitrate=N/A speed=  19x    frame=20038 fps=457 q=-0.0 size=N/A time=00:13:55.75 bitrate=N/A speed=  19x    frame=20255 fps=456 q=-0.0 size=N/A time=00:14:04.80 bitrate=N/A speed=  19x    frame=20501 fps=456 q=-0.0 size=N/A time=00:14:15.06 bitrate=N/A speed=  19x    frame=20712 fps=456 q=-0.0 size=N/A time=00:14:23.86 bitrate=N/A speed=  19x    frame=20968 fps=456 q=-0.0 size=N/A time=00:14:34.54 bitrate=N/A speed=  19x    frame=21213 fps=456 q=-0.0 size=N/A time=00:14:44.75 bitrate=N/A speed=  19x    frame=21457 fps=457 q=-0.0 size=N/A time=00:14:54.93 bitrate=N/A speed=  19x    frame=21710 fps=457 q=-0.0 size=N/A time=00:15:05.48 bitrate=N/A speed=19.1x    frame=21953 fps=457 q=-0.0 size=N/A time=00:15:15.62 bitrate=N/A speed=19.1x    frame=22220 fps=458 q=-0.0 size=N/A time=00:15:26.75 bitrate=N/A speed=19.1x    frame=22448 fps=458 q=-0.0 size=N/A time=00:15:36.26 bitrate=N/A speed=19.1x    frame=22699 fps=458 q=-0.0 size=N/A time=00:15:46.73 bitrate=N/A speed=19.1x    frame=22944 fps=458 q=-0.0 size=N/A time=00:15:56.95 bitrate=N/A speed=19.1x    frame=23190 fps=458 q=-0.0 size=N/A time=00:16:07.21 bitrate=N/A speed=19.1x    frame=23423 fps=458 q=-0.0 size=N/A time=00:16:16.93 bitrate=N/A speed=19.1x    frame=23671 fps=459 q=-0.0 size=N/A time=00:16:27.27 bitrate=N/A speed=19.1x    frame=23901 fps=458 q=-0.0 size=N/A time=00:16:36.87 bitrate=N/A speed=19.1x    frame=24131 fps=458 q=-0.0 size=N/A time=00:16:46.46 bitrate=N/A speed=19.1x    frame=24296 fps=457 q=-0.0 size=N/A time=00:16:53.34 bitrate=N/A speed=19.1x    frame=24526 fps=457 q=-0.0 size=N/A time=00:17:02.93 bitrate=N/A speed=19.1x    frame=24741 fps=457 q=-0.0 size=N/A time=00:17:11.90 bitrate=N/A speed=  19x    frame=24988 fps=457 q=-0.0 size=N/A time=00:17:22.20 bitrate=N/A speed=  19x    frame=25226 fps=457 q=-0.0 size=N/A time=00:17:32.13 bitrate=N/A speed=  19x    frame=25462 fps=457 q=-0.0 size=N/A time=00:17:41.97 bitrate=N/A speed=  19x    frame=25687 fps=457 q=-0.0 size=N/A time=00:17:51.36 bitrate=N/A speed=  19x    frame=25954 fps=457 q=-0.0 size=N/A time=00:18:02.49 bitrate=N/A speed=19.1x    frame=26226 fps=458 q=-0.0 size=N/A time=00:18:13.84 bitrate=N/A speed=19.1x    frame=26463 fps=458 q=-0.0 size=N/A time=00:18:23.72 bitrate=N/A speed=19.1x    frame=26743 fps=458 q=-0.0 size=N/A time=00:18:35.40 bitrate=N/A speed=19.1x    frame=26997 fps=459 q=-0.0 size=N/A time=00:18:45.99 bitrate=N/A speed=19.1x    frame=27249 fps=459 q=-0.0 size=N/A time=00:18:56.51 bitrate=N/A speed=19.1x    frame=27505 fps=459 q=-0.0 size=N/A time=00:19:07.18 bitrate=N/A speed=19.2x    frame=27768 fps=460 q=-0.0 size=N/A time=00:19:18.15 bitrate=N/A speed=19.2x    frame=27993 fps=460 q=-0.0 size=N/A time=00:19:27.54 bitrate=N/A speed=19.2x    frame=28236 fps=460 q=-0.0 size=N/A time=00:19:37.67 bitrate=N/A speed=19.2x    frame=28495 fps=460 q=-0.0 size=N/A time=00:19:48.47 bitrate=N/A speed=19.2x    frame=28733 fps=460 q=-0.0 size=N/A time=00:19:58.40 bitrate=N/A speed=19.2x    frame=28999 fps=461 q=-0.0 size=N/A time=00:20:09.49 bitrate=N/A speed=19.2x    frame=29275 fps=461 q=-0.0 size=N/A time=00:20:21.01 bitrate=N/A speed=19.2x    frame=29531 fps=461 q=-0.0 size=N/A time=00:20:31.68 bitrate=N/A speed=19.2x    frame=29820 fps=462 q=-0.0 size=N/A time=00:20:43.74 bitrate=N/A speed=19.3x    frame=30089 fps=463 q=-0.0 size=N/A time=00:20:54.96 bitrate=N/A speed=19.3x    frame=30358 fps=463 q=-0.0 size=N/A time=00:21:06.18 bitrate=N/A speed=19.3x    frame=30625 fps=464 q=-0.0 size=N/A time=00:21:17.31 bitrate=N/A speed=19.3x    frame=30877 fps=464 q=-0.0 size=N/A time=00:21:27.82 bitrate=N/A speed=19.3x    frame=31131 fps=464 q=-0.0 size=N/A time=00:21:38.42 bitrate=N/A speed=19.4x    frame=31393 fps=464 q=-0.0 size=N/A time=00:21:49.34 bitrate=N/A speed=19.4x    frame=31537 fps=463 q=-0.0 size=N/A time=00:21:55.35 bitrate=N/A speed=19.3x    frame=31636 fps=461 q=-0.0 size=N/A time=00:21:59.48 bitrate=N/A speed=19.2x    frame=31739 fps=459 q=-0.0 size=N/A time=00:22:03.78 bitrate=N/A speed=19.1x    frame=31880 fps=458 q=-0.0 size=N/A time=00:22:09.66 bitrate=N/A speed=19.1x    frame=32028 fps=456 q=-0.0 size=N/A time=00:22:15.83 bitrate=N/A speed=  19x    frame=32178 fps=455 q=-0.0 size=N/A time=00:22:22.09 bitrate=N/A speed=  19x    frame=32315 fps=454 q=-0.0 size=N/A time=00:22:27.80 bitrate=N/A speed=18.9x    frame=32433 fps=452 q=-0.0 size=N/A time=00:22:32.72 bitrate=N/A speed=18.9x    frame=32535 fps=450 q=-0.0 size=N/A time=00:22:36.98 bitrate=N/A speed=18.8x    frame=32674 fps=449 q=-0.0 size=N/A time=00:22:42.77 bitrate=N/A speed=18.7x    frame=32818 fps=448 q=-0.0 size=N/A time=00:22:48.78 bitrate=N/A speed=18.7x    frame=32964 fps=447 q=-0.0 size=N/A time=00:22:54.87 bitrate=N/A speed=18.6x    frame=33093 fps=445 q=-0.0 size=N/A time=00:23:00.25 bitrate=N/A speed=18.6x    frame=33237 fps=444 q=-0.0 size=N/A time=00:23:06.25 bitrate=N/A speed=18.5x    frame=33348 fps=443 q=-0.0 size=N/A time=00:23:10.88 bitrate=N/A speed=18.5x    frame=33454 fps=441 q=-0.0 size=N/A time=00:23:15.31 bitrate=N/A speed=18.4x    frame=33561 fps=439 q=-0.0 size=N/A time=00:23:19.77 bitrate=N/A speed=18.3x    [Parsed_ssim_10 @ 0000023776ddb200] SSIM Y:0.993968 (22.195464) U:0.995072 (23.073150) V:0.995960 (23.935860) All:0.994484 (22.583753)
[out#0/null @ 00000237704e2f40] video:14446KiB audio:262928KiB subtitle:0KiB other streams:0KiB global headers:0KiB muxing overhead: unknown
frame=33620 fps=438 q=-0.0 Lsize=N/A time=00:23:22.23 bitrate=N/A speed=18.3x    
